<svg width="66" height="44" viewBox="0 0 66 44" fill="none" xmlns="http://www.w3.org/2000/svg">
<path d="M14.6667 11H51.3333V33H14.6667V11ZM60.5 22C60.5 25.0376 62.9624 27.5 66 27.5V38.5C66 41.5376 63.5376 44 60.5 44H5.5C2.4624 44 0 41.5376 0 38.5V27.5C3.0376 27.5 5.5 25.0376 5.5 22C5.5 18.9624 3.0376 16.5 0 16.5V5.5C0 2.4624 2.4624 0 5.5 0H60.5C63.5376 0 66 2.4624 66 5.5V16.5C62.9624 16.5 60.5 18.9624 60.5 22ZM55 10.0833C55 8.56453 53.7688 7.33333 52.25 7.33333H13.75C12.2312 7.33333 11 8.56453 11 10.0833V33.9167C11 35.4355 12.2312 36.6667 13.75 36.6667H52.25C53.7688 36.6667 55 35.4355 55 33.9167V10.0833Z" fill="#F4F5ED"/>
</svg>
