<svg width="40" height="44" viewBox="0 0 40 44" fill="none" xmlns="http://www.w3.org/2000/svg">
<path d="M5 44C3.625 44 2.44833 43.508 1.47 42.5241C0.49 41.5385 0 40.3543 0 38.9714V16.3429C0 15.5467 0.1775 14.7924 0.5325 14.08C0.885833 13.3676 1.375 12.781 2 12.32L17 1.00571C17.4583 0.670476 17.9375 0.419047 18.4375 0.251428C18.9375 0.0838093 19.4583 0 20 0C20.5417 0 21.0625 0.0838093 21.5625 0.251428C22.0625 0.419047 22.5417 0.670476 23 1.00571L38 12.32C38.625 12.781 39.115 13.3676 39.47 14.08C39.8233 14.7924 40 15.5467 40 16.3429V38.9714C40 40.3543 39.5108 41.5385 38.5325 42.5241C37.5525 43.508 36.375 44 35 44H25V26.4H15V44H5Z" fill="white"/>
</svg>
