<svg width="33" height="24" viewBox="0 0 33 24" fill="none" xmlns="http://www.w3.org/2000/svg">
<path d="M19.5 13.5C20.75 13.5 21.8125 13.0625 22.6875 12.1875C23.5625 11.3125 24 10.25 24 9C24 7.75 23.5625 6.6875 22.6875 5.8125C21.8125 4.9375 20.75 4.5 19.5 4.5C18.25 4.5 17.1875 4.9375 16.3125 5.8125C15.4375 6.6875 15 7.75 15 9C15 10.25 15.4375 11.3125 16.3125 12.1875C17.1875 13.0625 18.25 13.5 19.5 13.5ZM9 18C8.175 18 7.469 17.706 6.882 17.118C6.294 16.531 6 15.825 6 15V3C6 2.175 6.294 1.469 6.882 0.882C7.469 0.294 8.175 0 9 0H30C30.825 0 31.5315 0.294 32.1195 0.882C32.7065 1.469 33 2.175 33 3V15C33 15.825 32.7065 16.531 32.1195 17.118C31.5315 17.706 30.825 18 30 18H9ZM3 24C2.175 24 1.469 23.7065 0.882 23.1195C0.294 22.5315 0 21.825 0 21V6C0 5.575 0.144 5.2185 0.432 4.9305C0.719 4.6435 1.075 4.5 1.5 4.5C1.925 4.5 2.2815 4.6435 2.5695 4.9305C2.8565 5.2185 3 5.575 3 6V21H27C27.425 21 27.781 21.144 28.068 21.432C28.356 21.719 28.5 22.075 28.5 22.5C28.5 22.925 28.356 23.281 28.068 23.568C27.781 23.856 27.425 24 27 24H3ZM9 6C9.825 6 10.531 5.706 11.118 5.118C11.706 4.531 12 3.825 12 3H9V6ZM30 6V3H27C27 3.825 27.2935 4.531 27.8805 5.118C28.4685 5.706 29.175 6 30 6ZM9 15H12C12 14.175 11.706 13.4685 11.118 12.8805C10.531 12.2935 9.825 12 9 12V15ZM27 15H30V12C29.175 12 28.4685 12.2935 27.8805 12.8805C27.2935 13.4685 27 14.175 27 15Z" fill="#0094FF"/>
</svg>
